<svg xmlns="http://www.w3.org/2000/svg" class="w-6 h-6" viewBox="6 2 12 20"><path fill="#000" fill-rule="nonzero" d="M16 2c1.10457 0 2 .89543 2 2v16c0 1.10457-.89543 2-2 2H8c-1.10457 0-2-.89543-2-2V4c0-1.10457.89543-2 2-2h8Zm0 1H8c-.55228 0-1 .44772-1 1v16c0 .55228.44772 1 1 1h8c.55228 0 1-.44772 1-1V4c0-.55228-.44772-1-1-1Zm-4 10c1.65685 0 3 1.34315 3 3s-1.34315 3-3 3-3-1.34315-3-3 1.34315-3 3-3Zm0 1c-1.10457 0-2 .89543-2 2s.89543 2 2 2 2-.89543 2-2-.89543-2-2-2Zm2.5-5c.27614 0 .5.22386.5.5s-.22386.5-.5.5h-5c-.27614 0-.5-.22386-.5-.5s.22386-.5.5-.5h5Zm-3-4c.27614 0 .5.22386.5.5s-.22386.5-.5.5h-2c-.27614 0-.5-.22386-.5-.5s.22386-.5.5-.5h2Zm3 0c.27614 0 .5.22386.5.5s-.22386.5-.5.5-.5-.22386-.5-.5.22386-.5.5-.5Z"/></svg>