<?xml version="1.0" encoding="UTF-8"?>
<svg width="82px" height="24px" viewBox="0 0 82 24" version="1.1" xmlns="http://www.w3.org/2000/svg" xmlns:xlink="http://www.w3.org/1999/xlink">
    <title>logo/creditcard</title>
    <g id="logo/creditcard" stroke="none" stroke-width="1" fill="none" fill-rule="evenodd">
        <g id="Visa_2021" transform="translate(0, 4)" fill="#1434CB" fill-rule="nonzero">
            <path d="M31.9157257,0 C28.4366767,0 25.3274575,1.81754147 25.3274575,5.17482777 C25.3274575,9.02542556 30.8415516,9.29135902 30.8415516,11.2260496 C30.8415516,12.0406562 29.9155055,12.7697488 28.3331832,12.7697488 C26.0882082,12.7697488 24.4102402,11.7509963 24.4102402,11.7509963 L23.6921622,15.1394235 C23.6921622,15.1394235 25.6251852,16 28.1914314,16 C31.9951852,16 34.9886486,14.0934845 34.9886486,10.6783651 C34.9886486,6.60928666 29.4515015,6.35126201 29.4515015,4.55596404 C29.4515015,3.91782261 30.2117618,3.21888226 31.7891792,3.21888226 C33.5691692,3.21888226 35.021021,3.95983812 35.021021,3.95983812 L35.7238939,0.687571442 C35.7238939,0.687571442 34.1435335,0 31.9152352,0 L31.9152352,0 L31.9157257,0 Z M0.0843643644,0.247150051 L0,0.740955853 C0,0.740955853 1.46362362,1.01084371 2.78206206,1.54963082 C4.47964965,2.16701165 4.60031031,2.52686212 4.88626627,3.64299175 L8.00137137,15.7449411 L12.1774074,15.7449411 L18.6106807,0.247150051 L14.4444545,0.247150051 L10.3106006,10.7841453 L8.6238038,1.85214248 C8.4692993,0.829929871 7.6854955,0.246655751 6.72658659,0.246655751 C6.72658659,0.246655751 0.0848548549,0.246655751 0.0848548549,0.246655751 L0.0843643644,0.247150051 Z M20.2861962,0.247150051 L17.0180581,15.7449411 L20.991031,15.7449411 L24.2473974,0.247150051 L20.2861962,0.247150051 Z M42.4445946,0.247150051 C41.4866667,0.247150051 40.979009,0.764187958 40.6067267,1.66727424 L34.7860761,15.7449411 L38.9523023,15.7449411 L39.7581782,13.3984986 L44.8337738,13.3984986 L45.3237738,15.7449411 L49,15.7449411 L45.7931732,0.247150051 L42.4445946,0.247150051 Z M42.9865866,4.43436621 L44.2216416,10.2498069 L40.9132833,10.2498069 L42.9870771,4.43436621 L42.9870771,4.43436621 L42.9865866,4.43436621 Z" id="path3789"></path>
        </g>
        <g id="Mastercard-logo" transform="translate(56, 2)" fill-rule="nonzero">
            <path d="M4.66752577,19.9561856 L4.66752577,18.628866 C4.66752577,18.121134 4.35824742,17.7886598 3.82731959,17.7886598 C3.56185567,17.7886598 3.27319588,17.8762887 3.07474227,18.1649485 C2.92010309,17.9226804 2.69845361,17.7886598 2.36597938,17.7886598 C2.1443299,17.7886598 1.92268041,17.8556701 1.74742268,18.0979381 L1.74742268,17.8324742 L1.28350515,17.8324742 L1.28350515,19.9561856 L1.74742268,19.9561856 L1.74742268,18.7835052 C1.74742268,18.4072165 1.94587629,18.2293814 2.25515464,18.2293814 C2.56443299,18.2293814 2.71907216,18.4278351 2.71907216,18.7835052 L2.71907216,19.9561856 L3.18298969,19.9561856 L3.18298969,18.7835052 C3.18298969,18.4072165 3.40463918,18.2293814 3.69072165,18.2293814 C4,18.2293814 4.15463918,18.4278351 4.15463918,18.7835052 L4.15463918,19.9561856 L4.66752577,19.9561856 Z M11.5489691,17.8324742 L10.7963918,17.8324742 L10.7963918,17.1907216 L10.3324742,17.1907216 L10.3324742,17.8324742 L9.91237113,17.8324742 L9.91237113,18.2525773 L10.3324742,18.2525773 L10.3324742,19.2268041 C10.3324742,19.7139175 10.5309278,20 11.0618557,20 C11.2603093,20 11.4819588,19.9329897 11.6365979,19.8453608 L11.5025773,19.4458763 C11.3685567,19.5335052 11.2139175,19.556701 11.1030928,19.556701 C10.8814433,19.556701 10.7938144,19.4226804 10.7938144,19.2036082 L10.7938144,18.2525773 L11.5463918,18.2525773 L11.5463918,17.8324742 L11.5489691,17.8324742 Z M15.4871134,17.7860825 C15.2216495,17.7860825 15.0438144,17.9201031 14.9329897,18.0953608 L14.9329897,17.8298969 L14.4690722,17.8298969 L14.4690722,19.9536082 L14.9329897,19.9536082 L14.9329897,18.757732 C14.9329897,18.4046392 15.0876289,18.2036082 15.3762887,18.2036082 C15.4639175,18.2036082 15.5747423,18.2268041 15.6649485,18.2474227 L15.7989691,17.8041237 C15.7061856,17.7860825 15.5747423,17.7860825 15.4871134,17.7860825 L15.4871134,17.7860825 Z M9.53608247,18.007732 C9.31443299,17.8530928 9.00515464,17.7860825 8.67268041,17.7860825 C8.14175258,17.7860825 7.78865979,18.0515464 7.78865979,18.4716495 C7.78865979,18.8247423 8.05412371,19.0257732 8.51804124,19.0902062 L8.73969072,19.1134021 C8.98195876,19.1572165 9.11597938,19.2242268 9.11597938,19.3350515 C9.11597938,19.4896907 8.93814433,19.6005155 8.62886598,19.6005155 C8.31958763,19.6005155 8.07474227,19.4896907 7.92010309,19.378866 L7.69845361,19.7319588 C7.94072165,19.9097938 8.27319588,19.9974227 8.6056701,19.9974227 C9.2242268,19.9974227 9.57989691,19.7087629 9.57989691,19.3118557 C9.57989691,18.935567 9.29123711,18.7371134 8.85051546,18.6701031 L8.62886598,18.6469072 C8.43041237,18.6237113 8.2757732,18.5798969 8.2757732,18.4484536 C8.2757732,18.2938144 8.43041237,18.2061856 8.67525773,18.2061856 C8.94072165,18.2061856 9.20618557,18.3170103 9.34020619,18.3840206 L9.53608247,18.007732 L9.53608247,18.007732 Z M21.878866,17.7860825 C21.6134021,17.7860825 21.435567,17.9201031 21.3247423,18.0953608 L21.3247423,17.8298969 L20.8608247,17.8298969 L20.8608247,19.9536082 L21.3247423,19.9536082 L21.3247423,18.757732 C21.3247423,18.4046392 21.4793814,18.2036082 21.7680412,18.2036082 C21.8556701,18.2036082 21.9664948,18.2268041 22.056701,18.2474227 L22.1907216,17.8092784 C22.1005155,17.7860825 21.9690722,17.7860825 21.878866,17.7860825 L21.878866,17.7860825 Z M15.9510309,18.8943299 C15.9510309,19.5360825 16.3943299,20 17.0798969,20 C17.3891753,20 17.6108247,19.9329897 17.8324742,19.757732 L17.6108247,19.3814433 C17.4329897,19.5154639 17.257732,19.5798969 17.056701,19.5798969 C16.6804124,19.5798969 16.4149485,19.314433 16.4149485,18.8943299 C16.4149485,18.4948454 16.6804124,18.2293814 17.056701,18.2087629 C17.2551546,18.2087629 17.4329897,18.2757732 17.6108247,18.4072165 L17.8324742,18.0309278 C17.6108247,17.8530928 17.3891753,17.7886492 17.0798969,17.7886492 C16.3943299,17.7860825 15.9510309,18.2525773 15.9510309,18.8943299 L15.9510309,18.8943299 L15.9510309,18.8943299 Z M20.242268,18.8943299 L20.242268,17.8324742 L19.7783505,17.8324742 L19.7783505,18.0979381 C19.6237113,17.8994845 19.4020619,17.7886598 19.1134021,17.7886598 C18.5154639,17.7886598 18.0515464,18.2525773 18.0515464,18.8943299 C18.0515464,19.5360825 18.5154639,20 19.1134021,20 C19.4226804,20 19.6443299,19.8891753 19.7783505,19.6907216 L19.7783505,19.9561856 L20.242268,19.9561856 L20.242268,18.8943299 L20.242268,18.8943299 Z M18.5386598,18.8943299 C18.5386598,18.5180412 18.7809278,18.2087629 19.1804124,18.2087629 C19.556701,18.2087629 19.8221649,18.4974227 19.8221649,18.8943299 C19.8221649,19.2706186 19.556701,19.5798969 19.1804124,19.5798969 C18.7835052,19.556701 18.5386598,19.2680412 18.5386598,18.8943299 L18.5386598,18.8943299 Z M12.9871134,17.7860825 C12.3685567,17.7860825 11.9252577,18.2293814 11.9252577,18.8917526 C11.9252577,19.556701 12.3685567,19.9974227 13.0103093,19.9974227 C13.3195876,19.9974227 13.628866,19.9097938 13.8737113,19.7087629 L13.6520619,19.3762887 C13.4742268,19.5103093 13.2525773,19.5979381 13.0335052,19.5979381 C12.7448454,19.5979381 12.4587629,19.4639175 12.3917526,19.0902062 L13.9613402,19.0902062 C13.9613402,19.0231959 13.9613402,18.9793814 13.9613402,18.9123711 C13.9819588,18.2293814 13.5824742,17.7860825 12.9871134,17.7860825 L12.9871134,17.7860825 L12.9871134,17.7860825 Z M12.9871134,18.185567 C13.2757732,18.185567 13.4742268,18.3634021 13.5180412,18.693299 L12.4123711,18.693299 C12.4561856,18.4072165 12.6546392,18.185567 12.9871134,18.185567 L12.9871134,18.185567 Z M24.5128866,18.8943299 L24.5128866,16.992268 L24.0489691,16.992268 L24.0489691,18.0979381 C23.8943299,17.8994845 23.6726804,17.7886598 23.3840206,17.7886598 C22.7860825,17.7886598 22.3221649,18.2525773 22.3221649,18.8943299 C22.3221649,19.5360825 22.7860825,20 23.3840206,20 C23.693299,20 23.9149485,19.8891753 24.0489691,19.6907216 L24.0489691,19.9561856 L24.5128866,19.9561856 L24.5128866,18.8943299 L24.5128866,18.8943299 Z M22.8092784,18.8943299 C22.8092784,18.5180412 23.0515464,18.2087629 23.4510309,18.2087629 C23.8273196,18.2087629 24.0927835,18.4974227 24.0927835,18.8943299 C24.0927835,19.2706186 23.8273196,19.5798969 23.4510309,19.5798969 C23.0515464,19.556701 22.8092784,19.2680412 22.8092784,18.8943299 L22.8092784,18.8943299 Z M7.27835052,18.8943299 L7.27835052,17.8324742 L6.81443299,17.8324742 L6.81443299,18.0979381 C6.65979381,17.8994845 6.43814433,17.7886598 6.14948454,17.7886598 C5.55154639,17.7886598 5.08762887,18.2525773 5.08762887,18.8943299 C5.08762887,19.5360825 5.55154639,20 6.14948454,20 C6.45876289,20 6.68041237,19.8891753 6.81443299,19.6907216 L6.81443299,19.9561856 L7.27835052,19.9561856 L7.27835052,18.8943299 L7.27835052,18.8943299 Z M5.55412371,18.8943299 C5.55412371,18.5180412 5.79639175,18.2087629 6.19587629,18.2087629 C6.57216495,18.2087629 6.83762887,18.4974227 6.83762887,18.8943299 C6.83762887,19.2706186 6.57216495,19.5798969 6.19587629,19.5798969 C5.79639175,19.556701 5.55412371,19.2680412 5.55412371,18.8943299 Z" id="XMLID_1775_" fill="#000000"></path>
            <g id="Group">
                <rect id="rect19" fill="#FF5A00" x="9.3814433" y="1.70360825" width="6.96907216" height="12.5206186"></rect>
                <path d="M9.84536082,7.96391753 C9.84536082,5.42010309 11.0412371,3.16237113 12.8762887,1.70360825 C11.5257732,0.641752577 9.82216495,0 7.96391753,0 C3.56185567,0 0,3.56185567 0,7.96391753 C0,12.3659794 3.56185567,15.9278351 7.96391753,15.9278351 C9.82216495,15.9278351 11.5257732,15.2860825 12.8762887,14.2242268 C11.0386598,12.7860825 9.84536082,10.507732 9.84536082,7.96391753 Z" id="XMLID_330_" fill="#EB001B"></path>
                <path d="M25.7525773,7.96391753 C25.7525773,12.3659794 22.1907216,15.9278351 17.7886598,15.9278351 C15.9304124,15.9278351 14.2268041,15.2860825 12.8762887,14.2242268 C14.7345361,12.7628866 15.9072165,10.507732 15.9072165,7.96391753 C15.9072165,5.42010309 14.7113402,3.16237113 12.8762887,1.70360825 C14.2242268,0.641752577 15.9278351,0 17.7860825,0 C22.1907216,0 25.7525773,3.58505155 25.7525773,7.96391753 Z" id="path22" fill="#F79E1B"></path>
            </g>
        </g>
    </g>
</svg>