<?xml version="1.0" encoding="UTF-8"?><svg id="svg970" xmlns="http://www.w3.org/2000/svg" viewBox="0 0 61.25 16.66"><defs><style>.cls-1{fill:#193c6b;}</style></defs><path id="path849" class="cls-1" d="m7.27,12.49c0,.57.47,1.04,1.04,1.04s1.04-.47,1.04-1.04-.47-1.04-1.04-1.04-1.04.47-1.04,1.04m7.22-3.12c-.29,2.08-1.63,3.82-3.46,4.66-.76.35-1.61.55-2.51.55h-.21c-1.15,0-2.08-.93-2.08-2.08s.93-2.08,2.08-2.08,2.08.93,2.08,2.08c0,.26-.05.5-.13.73.42-.16.81-.37,1.17-.62,0,0,0-.07,0-.1,0-1.73-1.4-3.12-3.12-3.12s-3.12,1.4-3.12,3.12,1.4,3.12,3.12,3.12c1.28,0,2.48-.33,3.52-.91,1.95-1.08,3.35-3.04,3.68-5.34h-1.02Zm-10.33,0H1.11c.33,2.3,1.73,4.26,3.68,5.34-.4-.64-.64-1.4-.64-2.21v-3.12Zm12.47-1.04c0,4.6-3.72,8.33-8.31,8.33S0,12.93,0,8.33h5.19v1.41c.76-.86,1.88-1.41,3.12-1.41,2.02,0,3.7,1.45,4.08,3.36.68-.84,1.1-1.91,1.12-3.08v-.28h3.12Z"/><path id="path853" class="cls-1" d="m8.31,5.06h-.52v-1.93c-.57,0-1.04.47-1.04,1.04,0,.38.2.71.5.89h-1.34c-.13-.27-.2-.57-.2-.89,0-.37.09-.71.26-1.01-.08-.02-.17-.03-.26-.03-.57,0-1.04.47-1.04,1.04,0,.38.2.71.5.89h-1.34c-.13-.27-.2-.57-.2-.89,0-1.15.93-2.08,2.08-2.08.38,0,.73.1,1.04.28.31-.18.66-.28,1.04-.28.18,0,.35.02.52.07.17-.04.34-.07.52-.07.38,0,.73.1,1.04.28.31-.18.66-.28,1.04-.28,1.15,0,2.08.93,2.08,2.08,0,.32-.07.62-.2.89h-1.34c.3-.18.5-.51.5-.89,0-.58-.47-1.04-1.04-1.04-.09,0-.18.01-.26.03.17.3.26.64.26,1.01,0,.32-.07.62-.2.89h-1.34c.3-.18.5-.51.5-.89,0-.58-.46-1.04-1.04-1.04v1.93h-.52Z"/><path id="path857" class="cls-1" d="m3.84,5.96c0-.35.28-.63.63-.63s.63.28.63.63-.28.63-.63.63-.63-.28-.63-.63"/><path id="path861" class="cls-1" d="m11.53,5.96c0-.35.28-.63.63-.63s.63.28.63.63-.28.63-.63.63-.63-.28-.63-.63"/><path id="path865" class="cls-1" d="m9.61,5.96c0-.35.28-.63.63-.63s.63.28.63.63-.28.63-.63.63-.63-.28-.63-.63"/><path id="path869" class="cls-1" d="m7.68,5.96c0-.35.28-.63.63-.63s.63.28.63.63-.28.63-.63.63-.63-.28-.63-.63"/><path id="path873" class="cls-1" d="m5.76,5.96c0-.35.28-.63.63-.63s.63.28.63.63-.28.63-.63.63-.63-.28-.63-.63"/><path id="path875" class="cls-1" d="m5.19,6.94h6.23v1.04h-6.23v-1.04Z"/><path id="path887" class="cls-1" d="m8.14.94v-.25h-.35v-.35h.35v-.35h.35v.35h.35v.35h-.35v.25c.2.07.35.26.35.49,0,.29-.23.52-.52.52s-.52-.23-.52-.52c0-.23.14-.42.35-.49"/><path id="path891" class="cls-1" d="m26.68,12.19c-.95.57-2.11,1.02-3.02,1.06-.99.05-2.07-.13-2.38-1.12-.45-1.46.45-3.31,1.61-3.93,1.61-.86,2.95-.39,3.41.08l.34-1.74c-.68-.3-1.62-.43-1.97-.43-2.44,0-3.61,1.19-4.34,2.17-.82,1.11-1.92,3.9.12,5.83.61.58,1.72.93,2.77.86,1.66-.12,2.68-.59,3.65-1.29.05.11.1.2.17.3.42.61,1.2.92,2.32.92,1.86,0,3.09-.73,3.46-2.83l.12-.7c.01-.07.03-.14.04-.22.03-.21.05-.45.05-.65,0-1.59-.97-2.28-2.69-2.28-1.84,0-3.04.72-3.45,2.82,1.01-.66,2-1.34,3.29-1.34.71,0,.93.29.93.82,0,.17,0,.36-.06.63,0,.02,0,.04-.01.07l-.13.69c-.23,1.12-.53,1.52-1.41,1.52-.66,0-.91-.23-.91-.8,0-.2.03-.58.06-.72.03-.14.2-.96.2-.96,0,0-1.2.67-2.16,1.24"/><path id="path895" class="cls-1" d="m38.18,8.24c-.69,0-1.51.11-2.23.69l.09-.52h-1.8l-1.13,6.33h1.94l.82-4.59c.52-.16,1.31-.29,2.01-.29l.29-1.62Z"/><path id="path899" class="cls-1" d="m42.69,8.24c-.69,0-1.5.11-2.23.69l.1-.52h-1.8l-1.13,6.33h1.94l.82-4.59c.52-.16,1.31-.29,2.01-.29l.28-1.62Z"/><path id="path903" class="cls-1" d="m59.02,9.53c.48,0,1.24.05,2.03.13l.2-1.17c-.48-.13-1.31-.26-2.27-.26-1.48,0-2.91.31-2.91,1.99,0,.92.52,1.48,1.49,1.86l.47.19c.68.29.83.38.83.69,0,.54-.5.65-1.13.65-.94,0-1.31-.08-2.14-.12l-.2,1.16c.34.1,1.34.25,2.23.25,1.81,0,3.18-.54,3.18-2.19,0-.89-.44-1.38-1.55-1.81l-.53-.21c-.52-.22-.73-.32-.73-.59,0-.54.56-.56,1.03-.56"/><path id="path907" class="cls-1" d="m53.31,11.23l-.14.69c-.22,1.12-.52,1.51-1.39,1.51-.66,0-.92-.23-.92-.8,0-.22.01-.44.07-.72l.14-.69c.21-1.12.53-1.51,1.38-1.51.71,0,.92.28.92.82,0,.19,0,.38-.06.7m-.69-2.99c-1.85,0-3.04.72-3.44,2.81l-.13.61c-.08.38-.08.68-.08.97,0,1.51.92,2.27,2.66,2.27,1.87,0,3.09-.73,3.47-2.82l.12-.7c.04-.24.09-.6.09-.88,0-1.58-.97-2.27-2.68-2.27"/><path id="path911" class="cls-1" d="m46.6,11.04h-2.28l.03-.09c.12-.69.4-1.34,1.35-1.34.75,0,.97.37.97.85,0,.15-.03.35-.07.58m-.72-2.8c-1.85,0-3.16.77-3.53,2.99l-.05.33c-.07.38-.12.75-.12,1.06,0,1.6.98,2.28,2.8,2.28,1.14,0,2.05-.16,2.58-.27l.21-1.28c-1.19.08-1.75.11-2.41.11-1.03,0-1.3-.26-1.3-.77,0-.14.03-.32.08-.6h4.18c.13-.65.19-1.09.19-1.53,0-1.38-.75-2.32-2.62-2.32"/></svg>