<svg xmlns="http://www.w3.org/2000/svg" class="w-6 h-6" viewBox="3 3 18 18"><path fill="#000" fill-rule="nonzero" d="M19 3c1.10457 0 2 .89543 2 2v14c0 1.10457-.89543 2-2 2H5c-1.10457 0-2-.89543-2-2V5c0-1.10457.89543-2 2-2h14Zm0 1H5c-.55228 0-1 .44772-1 1v14c0 .55228.44772 1 1 1h14c.55228 0 1-.44772 1-1V5c0-.55228-.44772-1-1-1ZM5.5 18c.27614 0 .5.22386.5.5s-.22386.5-.5.5-.5-.22386-.5-.5.22386-.5.5-.5Zm13 0c.27614 0 .5.22386.5.5s-.22386.5-.5.5-.5-.22386-.5-.5.22386-.5.5-.5ZM12 5c3.866 0 7 3.134 7 7s-3.134 7-7 7-7-3.134-7-7 3.134-7 7-7Zm-5.93259 7.90145.03363.2009C6.61862 15.88955 9.06284 18 12 18a6.0854 6.0854 0 0 0 .4458-.01631c-.26446-.06055-.4458-.29257-.4458-.5921V13l-.0955-.00507C11.48772 14.18533 10.34261 15 9 15c-1.37406 0-2.54126-.91283-2.93259-2.09855ZM17.39153 12H13l-.00507.09585C14.18533 12.5098 15 13.63659 15 15.00035c0 1.3739-.91283 2.54096-2.09855 2.93225C15.78763 17.49774 18 15.00723 18 12a6.08524 6.08524 0 0 0-.01646-.44779l-.00347.01971c-.06683.25437-.29535.42808-.58854.42808ZM13 13.194v3.595l.03714-.02169c.52912-.343.90183-.93763.95604-1.60005L14 15.00036c0-.76335-.36325-1.41174-.93916-1.77148L13 13.194ZM10.813 13H7.21l.02272.03712c.34306.52912.93779.90185 1.60034.95606L9 14c.75295 0 1.40828-.36845 1.76603-.9197L10.813 13Zm.28555-6.93259-.2009.03363C8.11045 6.61862 6 9.06284 6 12c0 .14995.0055.29861.01631.4458.06056-.26446.2926-.4458.59216-.4458H11l.00507-.0955C9.81467 11.48772 9 10.34261 9 9c0-1.37406.91283-2.54126 2.09855-2.93259ZM12 6c-.14995 0-.29861.0055-.4458.01631.26446.06056.4458.2926.4458.59216V11l.0955.00507C12.51228 9.81467 13.65739 9 15 9c1.37406 0 2.54126.91283 2.93259 2.09855C17.49774 8.21237 15.00723 6 12 6Zm3 4c-.75295 0-1.40828.36845-1.77092.94284L13.195 11h3.594l-.02172-.03712c-.34306-.52912-.93779-.90185-1.60034-.95606L15 10Zm-4-2.79-.03712.02272C10.38966 7.60437 10 8.27138 10 9c0 .75295.36845 1.40828.9197 1.76603L11 10.814V7.21ZM5.5 5c.27614 0 .5.22386.5.5s-.22386.5-.5.5-.5-.22386-.5-.5.22386-.5.5-.5Zm13 0c.27614 0 .5.22386.5.5s-.22386.5-.5.5-.5-.22386-.5-.5.22386-.5.5-.5Z"/></svg>