<svg xmlns="http://www.w3.org/2000/svg" class="w-6 h-6" viewBox="2 5 20 15"><path fill="#000" fill-rule="nonzero" d="M20 5c1.10457 0 2 .89543 2 2v9c0 1.10457-.89543 2-2 2h-1v1c0 .55228-.44772 1-1 1h-2c-.55228 0-1-.44772-1-1v-1h-3v1c0 .55228-.44772 1-1 1H6c-.55228 0-1-.44772-1-1v-1H4c-1.10457 0-2-.89543-2-2V7c0-1.10457.89543-2 2-2h16Zm-9 13H6v1h5v-1Zm7 0h-2v1h2v-1Zm2-12H4c-.55228 0-1 .44772-1 1v9c0 .55228.44772 1 1 1h16c.55228 0 1-.44772 1-1V7c0-.55228-.44772-1-1-1ZM8.5 7c2.48528 0 4.5 2.01472 4.5 4.5S10.98528 16 8.5 16 4 13.98528 4 11.5 6.01472 7 8.5 7Zm10 8c.27614 0 .5.22386.5.5s-.22386.5-.5.5-.5-.22386-.5-.5.22386-.5.5-.5Zm-2-7c.27614 0 .5.22386.5.5v6c0 .27614-.22386.5-.5.5s-.5-.22386-.5-.5v-6c0-.27614.22386-.5.5-.5ZM8 12.677l-1.64428 1.58945c.4679.3632 1.03042.6103 1.64433.69811L8 12.677Zm1 .061.00095 2.22642c.57132-.08188 1.0981-.30174 1.5455-.62473L9 12.738Zm2.96442-.73705L9.678 12l1.58845 1.64428c.363-.46765.61004-1.02981.69797-1.64333ZM7.261 12l-2.22542.00095c.08188.57132.30174 1.0981.62473 1.5455L7.261 12Zm7.239-2c.27614 0 .5.22386.5.5v2c0 .27614-.22386.5-.5.5s-.5-.22386-.5-.5v-2c0-.27614.22386-.5.5-.5Zm4 0c.27614 0 .5.22386.5.5v2c0 .27614-.22386.5-.5.5s-.5-.22386-.5-.5v-2c0-.27614.22386-.5.5-.5ZM5.73355 9.35572c-.3632.4679-.6103 1.03042-.69811 1.64433L7.322 11 5.73355 9.35572Zm5.60614.09783L9.738 10.999l2.22656.00105c-.08176-.5717-.30169-1.09884-.62487-1.5465ZM9.00095 8.03558 9 10.321l1.64428-1.58745c-.46765-.363-1.02981-.61004-1.64333-.69797Zm-1.0009-.00014c-.5717.08176-1.09884.30169-1.5465.62487L8 10.262l.00005-2.22656ZM18.5 7c.27614 0 .5.22386.5.5s-.22386.5-.5.5-.5-.22386-.5-.5.22386-.5.5-.5Z"/></svg>