<svg viewBox="0 0 26 16" xmlns="http://www.w3.org/2000/svg" color="#727272" backgroundColor="#ffffff" borderColor="#DDDDDD" data-testid="CardSchemeMastercard" class="fibfly1 fr7p6i0 notranslate" aria-hidden="true" focusable="false"><g clip-path="url(#clip0_24_702)"><rect width="26" height="16" rx="2" fill="#353A48"></rect><path d="M10.09 12.36C12.4979 12.36 14.45 10.408 14.45 8C14.45 5.59204 12.4979 3.64 10.09 3.64C7.68202 3.64 5.72998 5.59204 5.72998 8C5.72998 10.408 7.68202 12.36 10.09 12.36Z" fill="#E82C30"></path><path d="M15.91 12.36C18.3179 12.36 20.27 10.408 20.27 8C20.27 5.59204 18.3179 3.64 15.91 3.64C13.502 3.64 11.55 5.59204 11.55 8C11.55 10.408 13.502 12.36 15.91 12.36Z" fill="#ECA21D"></path><path fill-rule="evenodd" clip-rule="evenodd" d="M13 4.75322C12.11 5.55147 11.55 6.71035 11.55 8.00001C11.55 9.28967 12.11 10.4486 13 11.2468C13.89 10.4486 14.45 9.28967 14.45 8.00001C14.45 6.71035 13.89 5.55147 13 4.75322Z" fill="#F36D1E"></path></g><defs><clipPath id="clip0_24_702"><rect width="26" height="16" fill="white"></rect></clipPath></defs></svg>