<svg xmlns="http://www.w3.org/2000/svg" class="w-6 h-6" viewBox="2 3 20 18"><path fill="#000" fill-rule="nonzero" d="M20 3c1.10457 0 2 .89543 2 2v14c0 1.10457-.89543 2-2 2H4c-1.10457 0-2-.89543-2-2V5c0-1.10457.89543-2 2-2h16ZM9 17H6v3h3v-3ZM20 4H4c-.55228 0-1 .44772-1 1v14c0 .55228.44772 1 1 1h1v-3c0-.55228.44772-1 1-1h3c.51284 0 .9355.38604.99327.88338L10 17v3h10c.55228 0 1-.44772 1-1V5c0-.55228-.44772-1-1-1Zm-3.5 13c.27614 0 .5.22386.5.5s-.22386.5-.5.5-.5-.22386-.5-.5.22386-.5.5-.5Zm-4 0c.27614 0 .5.22386.5.5s-.22386.5-.5.5-.5-.22386-.5-.5.22386-.5.5-.5Zm6 0c.27614 0 .5.22386.5.5s-.22386.5-.5.5-.5-.22386-.5-.5.22386-.5.5-.5Zm-4 0c.27614 0 .5.22386.5.5s-.22386.5-.5.5-.5-.22386-.5-.5.22386-.5.5-.5Zm4-11c.27614 0 .5.22386.5.5v8c0 .27614-.22386.5-.5.5s-.5-.22386-.5-.5v-8c0-.27614.22386-.5.5-.5Zm-10-1c.27614 0 .5.22386.5.5V6c.55228 0 1 .44772 1 1v1l2.08525.0003C12.29109 7.41753 12.84678 7 13.5 7c.82843 0 1.5.67157 1.5 1.5 0 .65285-.41707 1.20828-.9993 1.4144L14 12h.5c.82843 0 1.5.67157 1.5 1.5s-.67157 1.5-1.5 1.5h-2c-.82843 0-1.5-.67157-1.5-1.5s.67157-1.5 1.5-1.5h.5l.0003-2.08525c-.42612-.1505-.7639-.48807-.9147-.91405L10 9v1c0 .55228-.44772 1-1 1H6c-.55228 0-1-.44772-1-1V7c0-.55228.44772-1 1-1v-.5c0-.27614.22386-.5.5-.5s.5.22386.5.5V6h1v-.5c0-.27614.22386-.5.5-.5Zm1 9c.27614 0 .5.22386.5.5 0 .24546-.17688.4496-.41012.49194L9.5 15h-4c-.27614 0-.5-.22386-.5-.5s.22386-.5.5-.5h4Zm5-1h-2c-.27614 0-.5.22386-.5.5s.22386.5.5.5h2c.27614 0 .5-.22386.5-.5s-.22386-.5-.5-.5Zm-5-1c.27614 0 .5.22386.5.5 0 .24546-.17688.4496-.41012.49194L9.5 13h-4c-.27614 0-.5-.22386-.5-.5s.22386-.5.5-.5h4Zm7-6c.27614 0 .5.22386.5.5v4c0 .27614-.22386.5-.5.5s-.5-.22386-.5-.5v-4c0-.27614.22386-.5.5-.5ZM9 7H6v3h3V7Zm4.5 1c-.27614 0-.5.22386-.5.5s.22386.5.5.5.5-.22386.5-.5-.22386-.5-.5-.5Zm-6 0c.27614 0 .5.22386.5.5s-.22386.5-.5.5-.5-.22386-.5-.5.22386-.5.5-.5Z"/></svg>