<svg xmlns="http://www.w3.org/2000/svg" class="w-6 h-6" viewBox="2 2 20 21"><path fill="#000" fill-rule="nonzero" d="M9 19H7v3h2v-3Zm1 3c0 .55228-.44772 1-1 1H6v-1H4.5c-.27614 0-.5-.22386-.5-.5s.22386-.5.5-.5H6v-1H4.5c-.27614 0-.5-.22386-.5-.5s.22386-.5.5-.5H6v-1h3c.55228 0 1 .44772 1 1v1h5c.82843 0 1.5-.67157 1.5-1.5V17H4c-1.10457 0-2-.89543-2-2V4c0-1.10457.89543-2 2-2h16c1.10457 0 2 .89543 2 2v11c0 1.10457-.89543 2-2 2h-2.5v1.5c0 1.38071-1.11929 2.5-2.5 2.5h-5v1ZM20 3H4c-.55228 0-1 .44772-1 1v11c0 .55228.44772 1 1 1h12.5v-3H16c-.55228 0-1-.44772-1-1v-.7929a.5.5 0 0 1 .14645-.35355l.56066-.56066A1 1 0 0 1 16.4142 10h1.17158a1 1 0 0 1 .7071.2929l.56066.56065A.5.5 0 0 1 19 11.20711V12c0 .55228-.44772 1-1 1h-.5v3H20c.55228 0 1-.44772 1-1V4c0-.55228-.44772-1-1-1ZM4.5 14c.27614 0 .5.22386.5.5s-.22386.5-.5.5-.5-.22386-.5-.5.22386-.5.5-.5Zm15 0c.27614 0 .5.22386.5.5s-.22386.5-.5.5-.5-.22386-.5-.5.22386-.5.5-.5Zm-10-9c1.0624 0 2.03882.36817 2.80863.98388l.37335-.37297c.19526-.19526.51185-.19526.7071 0 .19527.19526.19527.51185.35356.35356l-.72652.7269C13.63183 7.46117 14 8.4376 14 9.5c0 1.0624-.36817 2.03882-.98388 2.80863l.37297.37335c.19526.19526.19526.51185 0 .7071-.19526.19527-.51185.19527-.7071 0l-.37336-.37296C11.53883 13.63183 10.5624 14 9.5 14c-1.0624 0-2.03882-.36817-2.80863-.98388l-.37335.37297c-.19526.19526-.51185.19526-.7071 0-.19527-.19526-.19527-.51185 0-.7071l.37296-.37336C5.36817 11.53883 5 10.5624 5 9.5c0-1.0624.36817-2.03882.98388-2.80863l-.37297-.37335c-.19526-.19526-.19526-.51185 0-.7071.19526-.19527.51185-.19527.7071 0l.37336.37296C7.46117 5.36817 8.4376 5 9.5 5Zm1.37798 6.58628C10.4829 11.84775 10.00923 12 9.5 12s-.9829-.15225-1.37798-.41372l-.71772.7172C7.98853 12.74091 8.714 13 9.5 13c.786 0 1.51147-.25909 2.0957-.69652l-.71772-.7172ZM17.58578 11h-1.17157L16 11.413V12h2v-.586L17.58579 11ZM6.69653 7.4043C6.25909 7.98853 6 8.714 6 9.5c0 .786.25909 1.51147.69652 2.0957l.7172-.71772C7.15225 10.4829 7 10.00923 7 9.5s.15225-.9829.41372-1.37798l-.7172-.71772Zm5.60696 0-.7172.71772C11.84775 8.5171 12 8.99077 12 9.5s-.15225.9829-.41372 1.37798l.7172.71772C12.74091 11.01147 13 10.286 13 9.5c0-.786-.25909-1.51147-.69652-2.0957ZM9.5 8c-.23118 0-.45014.0523-.64571.1457l.29216.29364c.19526.19526.19526.51184 0 .7071-.19527.19527-.51185.19527-.70711 0l-.29363-.29215C8.0523 9.04986 8 9.26882 8 9.5s.0523.45014.1457.64571l.29364-.29216c.19526-.19526.51184-.19526.7071 0 .19527.19527.19527.51185 0 .70711l-.29215.29363C9.04986 10.9477 9.26882 11 9.5 11s.45014-.0523.64571-.1457l-.29216-.29364c-.19526-.19526-.19526-.51184 0-.7071.19527-.19527.51185-.19527.70711 0l.29363.29215C10.9477 9.95014 11 9.73118 11 9.5s-.0523-.45014-.1457-.64571l-.29364.29216c-.19526.19526-.51184.19526-.7071 0-.19527-.19527-.19527-.51185 0-.70711l.29215-.29363C9.95014 8.0523 9.73118 8 9.5 8Zm8.08579-2a1 1 0 0 1 .7071.2929l.56066.56065A.5.5 0 0 1 19 7.20711V8c0 .55228-.44772 1-1 1h-2c-.55228 0-1-.44772-1-1v-.7929a.5.5 0 0 1 .14645-.35355l.56066-.56066A1 1 0 0 1 16.4142 6h1.17158Zm0 1H16.4142L16 7.413V8h2v-.586L17.58579 7ZM9.5 6c-.786 0-1.51147.25909-2.0957.69652l.71772.7172C8.5171 7.15225 8.99077 7 9.5 7s.9829.15225 1.37798.41372l.71772-.7172C11.01147 6.25909 10.286 6 9.5 6Zm-5-2c.27614 0 .5.22386.5.5s-.22386.5-.5.5-.5-.22386-.5-.5.22386-.5.5-.5Zm15 0c.27614 0 .5.22386.5.5s-.22386.5-.5.5-.5-.22386-.5-.5.22386-.5.5-.5Z"/></svg>