<svg xmlns="http://www.w3.org/2000/svg" class="w-6 h-6" viewBox="2 2 20 20"><g fill="#000" fill-rule="nonzero"><path d="M17 5c1.10457 0 2 .89543 2 2v10c0 1.10457-.89543 2-2 2H7c-1.10457 0-2-.89543-2-2V7c0-1.10457.89543-2 2-2h10Zm0 1H7c-.55228 0-1 .44772-1 1v10c0 .55228.44772 1 1 1h10c.55228 0 1-.44772 1-1V7c0-.55228-.44772-1-1-1Zm-2.14286 2C15.48833 8 16 8.51167 16 9.14286v5.71428C16 15.48833 15.48833 16 14.85714 16H9.14286C8.51167 16 8 15.48833 8 14.85714V9.14286C8 8.51167 8.51167 8 9.14286 8h5.71428ZM14.5 9h-5c-.27614 0-.5.22386-.5.5v5c0 .27614.22386.5.5.5h5c.27614 0 .5-.22386.5-.5v-5c0-.27614-.22386-.5-.5-.5Zm-12-2h3c.27614 0 .5.22386.5.5s-.22386.5-.5.5h-3c-.27614 0-.5-.22386-.5-.5s.22386-.5.5-.5Zm16 0h3c.27614 0 .5.22386.5.5s-.22386.5-.5.5h-3c-.27614 0-.5-.22386-.5-.5s.22386-.5.5-.5Zm-16 3h3c.27614 0 .5.22386.5.5s-.22386.5-.5.5h-3c-.27614 0-.5-.22386-.5-.5s.22386-.5.5-.5Zm16 0h3c.27614 0 .5.22386.5.5s-.22386.5-.5.5h-3c-.27614 0-.5-.22386-.5-.5s.22386-.5.5-.5Zm-16 3h3c.27614 0 .5.22386.5.5s-.22386.5-.5.5h-3c-.27614 0-.5-.22386-.5-.5s.22386-.5.5-.5Zm16 0h3c.27614 0 .5.22386.5.5s-.22386.5-.5.5h-3c-.27614 0-.5-.22386-.5-.5s.22386-.5.5-.5Zm-16 3h3c.27614 0 .5.22386.5.5s-.22386.5-.5.5h-3c-.27614 0-.5-.22386-.5-.5s.22386-.5.5-.5Zm16 0h3c.27614 0 .5.22386.5.5s-.22386.5-.5.5h-3c-.27614 0-.5-.22386-.5-.5s.22386-.5.5-.5Z"/><rect width="4" height="1" x="5.5" y="3.5" rx=".5" transform="rotate(90 7.5 4)"/><rect width="4" height="1" x="5.5" y="19.5" rx=".5" transform="rotate(90 7.5 20)"/><rect width="4" height="1" x="8.5" y="3.5" rx=".5" transform="rotate(90 10.5 4)"/><rect width="4" height="1" x="8.5" y="19.5" rx=".5" transform="rotate(90 10.5 20)"/><rect width="4" height="1" x="11.5" y="3.5" rx=".5" transform="rotate(90 13.5 4)"/><rect width="4" height="1" x="11.5" y="19.5" rx=".5" transform="rotate(90 13.5 20)"/><rect width="4" height="1" x="14.5" y="3.5" rx=".5" transform="rotate(90 16.5 4)"/><rect width="4" height="1" x="14.5" y="19.5" rx=".5" transform="rotate(90 16.5 20)"/></g></svg>