<svg xmlns="http://www.w3.org/2000/svg" class="w-6 h-6" viewBox="2 5 20 14"><path fill="#000" fill-rule="nonzero" d="M20 5c1.10457 0 2 .89543 2 2v8c0 1.10457-.89543 2-2 2h-.5v1.5c0 .27614-.22386.5-.5.5s-.5-.22386-.5-.5V17h-1v1.5c0 .27614-.22386.5-.5.5s-.5-.22386-.5-.5V17h-1v1.5c0 .27614-.22386.5-.5.5s-.5-.22386-.5-.5V17h-1v1.5c0 .27614-.22386.5-.5.5s-.5-.22386-.5-.5V17h-1v1.5c0 .27614-.22386.5-.5.5s-.5-.22386-.5-.5V17h-1v1.5c0 .27614-.22386.5-.5.5s-.5-.22386-.5-.5V17h-1v1.5c0 .27614-.22386.5-.5.5s-.5-.22386-.5-.5V17h-1v1.5c0 .27614-.22386.5-.5.5s-.5-.22386-.5-.5V17H4c-1.10457 0-2-.89543-2-2V7c0-1.10457.89543-2 2-2h16Zm0 1H4c-.55228 0-1 .44772-1 1v8c0 .55228.44772 1 1 1h16c.55228 0 1-.44772 1-1V7c0-.55228-.44772-1-1-1ZM8 8c.55228 0 1 .44772 1 1v4c0 .55228-.44772 1-1 1H6c-.55228 0-1-.44772-1-1V9c0-.55228.44772-1 1-1h2Zm5 0c.55228 0 1 .44772 1 1v4c0 .55228-.44772 1-1 1h-2c-.55228 0-1-.44772-1-1V9c0-.55228.44772-1 1-1h2Zm5 0c.55228 0 1 .44772 1 1v4c0 .55228-.44772 1-1 1h-2c-.55228 0-1-.44772-1-1V9c0-.55228.44772-1 1-1h2ZM8 9H6v4h2V9Zm5 0h-2v4h2V9Zm5 0h-2v4h2V9Z"/></svg>