<?xml version="1.0" encoding="UTF-8"?><svg id="svg970" xmlns="http://www.w3.org/2000/svg" viewBox="0 0 64.64 9.31"><defs><style>.cls-1{fill:#005db4;}.cls-2{fill:#81a9e1;}.cls-3{fill:#de453b;}.cls-4{fill:#c8d4eb;}</style></defs><path class="cls-3" d="m40.8,2.87h-2.62c0-.29.06-.78-1.18-.91-.7-.07-1.08.24-1,.65.12.58.67.66,1.17.79l1.15.23c1.02.25,1.88.56,2.29,1.02.41.45.62,1.04.62,1.64,0,.48-.18,1-.4,1.38-.94,1.61-3.18,1.66-3.73,1.66-.59,0-1.15-.08-1.67-.23-.52-.16-.98-.38-1.32-.67-.34-.29-1.09-.9-1.04-2.28h2.71c.06.8.35,1.05.68,1.14.3.08,1.32.19,1.73-.23.33-.33.37-.86-.32-1.11-.14-.05-2.05-.57-2.52-.74-2.09-.65-2.05-2.07-2-2.63.1-1.21,1.02-2.51,3.66-2.57,3.77-.09,3.78,2.55,3.8,2.87"/><polygon class="cls-3" points="41.42 8.99 41.42 .29 47.89 .29 47.89 2.34 44.04 2.34 44.04 3.69 47.73 3.69 47.73 5.63 44.04 5.63 44.04 6.91 48 6.91 48 8.99 41.42 8.99"/><path class="cls-3" d="m48.42.29h2.57v5.36c0,.36.01,1.5,1.33,1.52.72.01,1.47-.11,1.47-1.52V.29h2.57v5.08c0,.64-.05,1.15-.14,1.52-.1.37-.25.7-.47.99-.22.28-.48.53-.8.74-.32.2-.69.36-1.11.46-.42.11-.89.16-1.39.16-.59,0-1.09-.05-1.52-.16-.43-.11-.8-.27-1.12-.47-.31-.21-.57-.45-.78-.73-.21-.29-.37-.66-.5-1.13-.08-.3-.11-.76-.11-1.38V.29Z"/><path class="cls-3" d="m56.85,8.99V.29h4.21c.59,0,3.45-.24,3.48,2.34.01,1.94-1.24,2.26-1.51,2.33.48.14,1.24.2,1.39,1.4l.21,2.63h-2.7l-.05-1.92c-.09-1.15-.99-1.17-1.35-1.17h-1.14v3.09h-2.55Zm2.55-4.91h1.24c.45,0,.87-.12,1.05-.29.18-.17.29-.37.29-.66s-.09-.53-.26-.69c-.17-.17-.48-.25-.91-.25h-1.41v1.88Z"/><rect class="cls-4" y=".31" width="5.89" height="8.73"/><rect class="cls-2" x="5.25" y=".31" width="8.51" height="8.73"/><rect class="cls-1" x="13.04" y=".31" width="18.14" height="8.73"/></svg>