<svg xmlns="http://www.w3.org/2000/svg" class="w-6 h-6" viewBox="5 2 14 20"><g fill="#000" fill-rule="nonzero"><path d="M19 20c0 1.10457-.89543 2-2 2H7c-1.10457 0-2-.89543-2-2V4c0-1.10457.89543-2 2-2h10c1.10457 0 2 .89543 2 2v16Zm-1 0V4c0-.55228-.44772-1-1-1H7c-.55228 0-1 .44772-1 1v16c0 .55228.44772 1 1 1h10c.55228 0 1-.44772 1-1Z"/><path d="M12.5 4C14.98528 4 17 6.01472 17 8.5S14.98528 13 12.5 13c-.8038 0-1.55837-.21074-2.21148-.57999l-2.55629 2.55486c-.19526.19527-.51184.19527-.7071 0-.19527-.19526-.19527-.51184 0-.7071l2.44248-2.44288C8.56581 11.00195 8 9.81705 8 8.5 8 6.01472 10.01472 4 12.5 4Zm0 1C10.567 5 9 6.567 9 8.5c0 1.04088.45437 1.97564 1.17559 2.61675l.38507-.38452c.19526-.19526.51184-.19526.7071 0 .19527.19527.19527.51185 0 .70711l-.23758.238c.4469.20709.94487.32266 1.46982.32266 1.933 0 3.5-1.567 3.5-3.5S14.433 5 12.5 5Zm0 2c.82843 0 1.5.67157 1.5 1.5s-.67157 1.5-1.5 1.5S11 9.32843 11 8.5 11.67157 7 12.5 7Zm0 1c-.27614 0-.5.22386-.5.5s.22386.5.5.5.5-.22386.5-.5-.22386-.5-.5-.5Zm3.5 8.5c0 .27614-.22386.5-.5.5h-3c-.27614 0-.5-.22386-.5-.5s.22386-.5.5-.5h3c.27614 0 .5.22386.5.5Zm0 2c0 .27614-.22386.5-.5.5h-6c-.27614 0-.5-.22386-.5-.5s.22386-.5.5-.5h6c.27614 0 .5.22386.5.5Z"/></g></svg>