<svg viewBox="0 0 26 16" xmlns="http://www.w3.org/2000/svg" color="#727272" backgroundColor="#ffffff" data-testid="CardSchemeVisa" class="fibfly1 fr7p6i0 notranslate" aria-hidden="true" focusable="false"><g clip-path="url(#clip0_24_693)"><rect x="0.25" y="0.25" width="25.5" height="15.5" rx="1.75" fill="white" stroke="#DDDDDD" stroke-width="0.5"></rect><path fill-rule="evenodd" clip-rule="evenodd" d="M14.61 6.31003C14.3166 6.28634 14.0566 6.49791 14.02 6.79003L14 6.78003C14 7.0391 14.3178 7.20921 14.6999 7.41383C15.2766 7.72259 16 8.10992 16 9.00003C16 10.18 15 11 13.53 10.93C12.9977 10.9325 12.4705 10.827 11.98 10.62L12.23 9.41003C12.6885 9.6317 13.1908 9.74788 13.7 9.75003C14.0891 9.82331 14.4644 9.56867 14.54 9.18003C14.58 8.92003 14.37 8.74003 13.82 8.48003C13.1589 8.24696 12.6889 7.65664 12.61 6.96003C12.61 5.87003 13.62 5.09003 15 5.09003C15.4293 5.0977 15.8533 5.18589 16.25 5.35003L16 6.57003C15.569 6.35857 15.0884 6.26868 14.61 6.31003ZM7.91005 10.88H6.40005L5.26005 6.35003C5.22029 6.15164 5.10104 5.97818 4.93005 5.87003C4.49858 5.63956 4.03249 5.48082 3.55005 5.40003V5.22003H6.00005C6.32234 5.22751 6.59046 5.47009 6.63005 5.79003L7.20005 9.05003L8.71005 5.22003H10.18L7.91005 10.88ZM11.02 10.88H9.59005L10.76 5.22003H12.19L11.02 10.88ZM21.02 10.88L19.87 5.22003H18.66C18.3892 5.22462 18.1517 5.40179 18.07 5.66003L16 10.88H17.47L17.76 10.05H19.57L19.73 10.88H21.02ZM19.29 8.87003L18.87 6.74003L18.11 8.87003H19.29Z" fill="#224DBA"></path></g><defs><clipPath id="clip0_24_693"><rect width="26" height="16" fill="white"></rect></clipPath></defs></svg>